<?xml version="1.0" standalone="no"?><!DOCTYPE svg PUBLIC "-//W3C//DTD SVG 1.1//EN" "http://www.w3.org/Graphics/SVG/1.1/DTD/svg11.dtd"><svg t="1764487916220" class="icon" viewBox="0 0 1024 1024" version="1.1" xmlns="http://www.w3.org/2000/svg" p-id="51134" xmlns:xlink="http://www.w3.org/1999/xlink" width="200" height="200"><path d="M819.84 298.4l-1.28-1.28A64 64 0 0 0 704 336a63.04 63.04 0 0 0 14.4 40 256 256 0 1 1-412.16 0A63.04 63.04 0 0 0 320 336a64 64 0 0 0-114.4-39.04l-2.08 3.04a5.6 5.6 0 0 0-0.8 1.28 384 384 0 1 0 617.12-2.4z" fill="#687CA4" p-id="51135"></path><path d="M512 528a64 64 0 0 0 64-64V144a64 64 0 0 0-128 0v320a64 64 0 0 0 64 64z" fill="#687CA4" p-id="51136"></path></svg>