<?xml version="1.0" standalone="no"?><!DOCTYPE svg PUBLIC "-//W3C//DTD SVG 1.1//EN" "http://www.w3.org/Graphics/SVG/1.1/DTD/svg11.dtd"><svg t="1764488000093" class="icon" viewBox="0 0 1024 1024" version="1.1" xmlns="http://www.w3.org/2000/svg" p-id="53033" xmlns:xlink="http://www.w3.org/1999/xlink" width="200" height="200"><path d="M512 959.155133c-229.031277 0-415.253562-186.271404-415.253562-415.302681 0-132.49871 64.448848-258.262018 172.178431-336.328002 26.38288-19.079544 63.209624-13.193487 82.289168 13.189394 18.98233 26.295899 13.004175 63.073524-13.19451 82.153068-77.44893 55.998385-123.576503 146.023748-123.576503 240.986563 0 164.06259 133.451408 297.655214 297.557999 297.655214 164.110685 0 297.655214-133.592624 297.655214-297.655214 0-94.962815-46.317908-184.988178-123.673717-240.986563-26.290783-19.079544-32.083719-55.857169-13.004175-82.153068 18.889209-26.38288 55.80805-32.127721 82.006735-13.189394 107.918895 78.065983 172.270529 203.780173 172.270529 336.328002-0.002047 229.031277-186.321546 415.302681-415.255609 415.302681z" fill="#49A3B5" p-id="53034"></path><path d="M512 684.569334c-32.55444 0-58.942437-26.339902-58.942437-58.899458V122.621758c0-32.511461 26.387997-58.894342 58.942437-58.894341 32.462343 0 58.753125 26.38288 58.753125 58.894341v503.049141c0 32.558533-26.290783 58.898435-58.753125 58.898435z" fill="#49A3B5" p-id="53035"></path></svg>