<?xml version="1.0" standalone="no"?><!DOCTYPE svg PUBLIC "-//W3C//DTD SVG 1.1//EN" "http://www.w3.org/Graphics/SVG/1.1/DTD/svg11.dtd"><svg t="1764485500312" class="icon" viewBox="0 0 1024 1024" version="1.1" xmlns="http://www.w3.org/2000/svg" p-id="40631" xmlns:xlink="http://www.w3.org/1999/xlink" width="200" height="200"><path d="M512.01926 512.01926m-502.389045 0a502.389046 502.389046 0 1 0 1004.778091 0 502.389046 502.389046 0 1 0-1004.778091 0Z" fill="#76A9DC" p-id="40632"></path><path d="M782.281609 512.01926c0-34.013919-6.587067-66.487003-18.143325-96.494752a35.785878 35.785878 0 0 0-18.798179-5.893691 36.517775 36.517775 0 0 0-34.93842 26.887559c8.97536 23.497724 14.098634 48.921491 14.098635 75.500884a212.750705 212.750705 0 0 1-212.48106 212.48106c-117.180454 0-212.481059-95.339127-212.481059-212.48106s95.300606-212.481059 212.481059-212.481059c35.554753 0 69.067901 8.859798 98.536358 24.422225a36.440733 36.440733 0 0 0 30.123312-35.631795 34.437648 34.437648 0 0 0-4.04469-15.909115 268.374826 268.374826 0 0 0-124.576459-30.662604c-149.037204 0-270.262348 121.225144-270.262348 270.262348s121.225144 270.262348 270.262348 270.262349c148.998683-0.038521 270.223827-121.263665 270.223828-270.262349z" fill="#ECF1F8" p-id="40633"></path><path d="M560.016251 380.586089l40.023173-190.331565 106.009404 121.687394z" fill="#ECF1F8" p-id="40634"></path></svg>