<?xml version="1.0" standalone="no"?><!DOCTYPE svg PUBLIC "-//W3C//DTD SVG 1.1//EN" "http://www.w3.org/Graphics/SVG/1.1/DTD/svg11.dtd"><svg t="1764482701157" class="icon" viewBox="0 0 1024 1024" version="1.1" xmlns="http://www.w3.org/2000/svg" p-id="14155" xmlns:xlink="http://www.w3.org/1999/xlink" width="200" height="200"><path d="M364.288 333.9776v-57.856c0-79.616 62.3104-146.9952 141.8752-149.3504 72.1408-2.1504 133.12 48.2304 147.5072 115.6608 3.7888 17.7664 19.3536 30.5664 37.5808 30.5664 24.576 0 42.6496-22.7328 37.5296-46.7968-21.2992-99.4304-109.0048-174.4384-214.272-176.2816-124.8768-2.1504-227.0208 102.1952-227.0208 227.0208v57.0368h-32.9216c-84.8384 0-153.6 68.7616-153.6 153.6v307.5584c0 84.8384 68.7616 153.6 153.6 153.6h512.0512c84.8384 0 153.6-68.7616 153.6-153.6V487.5776c0-84.8384-68.7616-153.6-153.6-153.6H364.288z" fill="#aaaaf8" p-id="14156"></path><path d="M573.952 567.9616c0-34.9696-28.3648-63.3344-63.3344-63.3344-34.9696 0-63.3344 28.3648-63.3344 63.3344 0 20.5312 9.7792 38.7072 24.9344 50.2784v112.4864c0 21.1968 17.2032 38.4 38.4 38.4s38.4-17.2032 38.4-38.4v-112.4864c15.1552-11.5712 24.9344-29.7472 24.9344-50.2784z" fill="#FFCD43" p-id="14157"></path></svg>